<?xml version="1.0" encoding="utf-8"?><svg xmlns="http://www.w3.org/2000/svg" xmlns:xlink="http://www.w3.org/1999/xlink"><symbol viewBox="0 0 14 14" id="facebook" xmlns="http://www.w3.org/2000/svg"><defs><style>.acls-1{fill:#008dff;fill-rule:evenodd}</style></defs><path id="afacebook" class="acls-1" d="M3.38 1.763a.668.668 0 0 1 .584-.205h1V.007H3.285a3.179 3.179 0 0 0-1.045.16A1.725 1.725 0 0 0 1.073 2v.936H-.012V4.5h1.085V9h2.212V4.5h1.507L5 2.936H3.285V2.23a.822.822 0 0 1 .095-.467z" transform="translate(4.5 2.5)"/></symbol><symbol viewBox="0 0 14 14" id="gitter" xmlns="http://www.w3.org/2000/svg"><defs><style>.bcls-1{fill:#008dff;fill-rule:evenodd}</style></defs><path id="bgitter" class="bcls-1" d="M0 0h1.333v6.364H0V0zm2.222 1.364h1.334V10H2.222V1.364zm2.222 0h1.334V10H4.444V1.364zm2.222 0H8v5H6.667v-5z" transform="translate(3 2)"/></symbol><symbol viewBox="0 0 14 14" id="gplus" xmlns="http://www.w3.org/2000/svg"><defs><style>.ccls-1{fill:#008dff;fill-rule:evenodd}</style><clipPath id="cclip-path"><path d="M.313 2.5h1052v685H.313z"/></clipPath></defs><g clip-path="url(#cclip-path)"><path id="cgplus" class="ccls-1" d="M9.2 4.767h1.522v1.6h1.131v-1.6h1.522V3.653h-1.52V2.094h-1.131v1.559H9.2v1.114zM8.115 3.609H3.9v1.738h2.38a2.233 2.233 0 0 1-2.319 1.826 2.664 2.664 0 0 1-2.631-2.7 2.664 2.664 0 0 1 2.631-2.7 2.547 2.547 0 0 1 1.633.677l1.273-1.275A4.175 4.175 0 0 0 3.853 0 4.426 4.426 0 0 0-.5 4.5 4.426 4.426 0 0 0 3.853 9C6.4 9 8.115 7.253 8.115 4.5v-.891z" transform="translate(.313 2.5)"/></g></symbol><symbol viewBox="0 0 14 14" id="instagram" xmlns="http://www.w3.org/2000/svg"><defs><style>.dcls-1{fill:#008dff;fill-rule:evenodd}</style></defs><path id="dinstagram" class="dcls-1" d="M8.053 8.167c.688-.766.68-1.959.68-3.667s.008-2.9-.68-3.667C7.309.005 6.146 0 4.414 0S1.514.005.775.833C.088 1.6.1 2.791.1 4.5c0 1.709-.008 2.9.68 3.667.739.828 1.902.833 3.634.833s2.895-.005 3.639-.833zM1.3 7.494C.846 6.735.878 6.081.878 4.5c0-1.581-.032-2.235.425-2.994S2.918.8 4.414.8s2.656-.047 3.111.709.426 1.41.426 2.991c0 1.581.032 2.235-.425 2.994S5.911 8.2 4.414 8.2s-2.655.05-3.114-.706zm5.92-5.377a.519.519 0 1 0-1.037 0 .519.519 0 1 0 1.037 0zM6.625 4.5a2.258 2.258 0 0 0-2.21-2.3A2.258 2.258 0 0 0 2.2 4.5a2.258 2.258 0 0 0 2.21 2.3 2.258 2.258 0 0 0 2.215-2.3zM4.414 3.012A1.459 1.459 0 0 1 5.843 4.5a1.459 1.459 0 0 1-1.429 1.488A1.459 1.459 0 0 1 2.986 4.5a1.459 1.459 0 0 1 1.428-1.488z" transform="translate(2.578 2.5)"/></symbol><symbol viewBox="0 0 55 55" id="mail" xmlns="http://www.w3.org/2000/svg"><defs><style>.ecls-1{fill:#60ae46;fill-rule:evenodd}</style></defs><path id="email" class="ecls-1" d="M49.972 3.5L25.006 19.842.04 3.5S-.71 0 4.433 0h41.146c5.143 0 4.393 3.5 4.393 3.5zM25.006 25.4L49.972 4.762v24.35c0 2.6-.429 3.9-3.536 3.9H3.576c-3.107 0-3.536-1.3-3.536-3.9V4.762z" transform="translate(2.5 11)"/></symbol><symbol viewBox="0 0 55 55" id="search" xmlns="http://www.w3.org/2000/svg"><defs><style>.fcls-1{fill:#60ae46;fill-rule:evenodd}</style></defs><path id="fsearch" class="fcls-1" d="M37.631 34.135L48.108 44.76a3.081 3.081 0 0 1 0 4.314 2.979 2.979 0 0 1-4.254 0L33.34 38.411a20.756 20.756 0 0 1-27.21-2.126 21.476 21.476 0 0 1 0-30.072 20.763 20.763 0 0 1 29.654 0 21.487 21.487 0 0 1 1.847 27.922zM9.836 9.972a16.108 16.108 0 0 0 0 22.554 15.572 15.572 0 0 0 22.24 0 16.107 16.107 0 0 0 0-22.554 15.572 15.572 0 0 0-22.24 0z" transform="translate(3 2.516)"/></symbol><symbol viewBox="0 0 30 30" id="share" xmlns="http://www.w3.org/2000/svg"><defs><style>.gcls-1{fill:#1a9197;fill-rule:evenodd}</style></defs><path id="gshare" class="gcls-1" d="M653.343 472.458a3.532 3.532 0 0 1-2.815-4.136c.014-.073.031-.144.05-.215l-8.751-3.98a4.127 4.127 0 0 1-3.434.876 4.064 4.064 0 1 1 4.087-6.4l6.462-2.5a3.426 3.426 0 0 1 .051-.965 3.483 3.483 0 1 1 .9 3.058l-6.618 2.558a4 4 0 0 1-.173 1.46l8.754 3.983a3.583 3.583 0 0 1 2.844-.654 3.523 3.523 0 1 1-1.357 6.915zm-13.735-13.622a2.222 2.222 0 1 0 1.776 2.609 2.241 2.241 0 0 0-1.776-2.609z" transform="translate(-631.329 -447.438)"/></symbol><symbol viewBox="0 0 22 22" id="tick" xmlns="http://www.w3.org/2000/svg"><path class="htick" d="M17 6l-8 9-4-4" fill="transparent" stroke-width="2" stroke-dasharray="20" stroke-linecap="round" stroke-linejoin="round"/></symbol><symbol viewBox="0 0 14 14" id="twitter" xmlns="http://www.w3.org/2000/svg"><defs><style>.icls-1{fill:#008dff;fill-rule:evenodd}</style><clipPath id="iclip-path"><path d="M2.094 2.047h1052v685h-1052z"/></clipPath></defs><g clip-path="url(#iclip-path)"><path id="itwitter" class="icls-1" d="M8.778 2.928a4.3 4.3 0 0 0 .506-.42 3.547 3.547 0 0 0 .522-.622s-.19.078-.49.171a4.618 4.618 0 0 1-.664.14 6.3 6.3 0 0 0 .506-.451 1.621 1.621 0 0 0 .38-.715A4.962 4.962 0 0 1 9 1.31a5.388 5.388 0 0 1-.823.233 2.126 2.126 0 0 0-2.642-.3 2.311 2.311 0 0 0-.886 2.167A4.877 4.877 0 0 1 2.4 2.865 5.022 5.022 0 0 1 .409 1.31 2.008 2.008 0 0 0 .2 2.8a2.329 2.329 0 0 0 .807 1.213 1.994 1.994 0 0 1-.471-.075 1.734 1.734 0 0 1-.411-.155 1.682 1.682 0 0 0 .364 1.166 2.153 2.153 0 0 0 1.234.824 1.556 1.556 0 0 1-.437.087 2.06 2.06 0 0 1-.434-.024 2.277 2.277 0 0 0 .675.928 2.437 2.437 0 0 0 1.223.472 4.352 4.352 0 0 1-1.233.664 4.88 4.88 0 0 1-1.788.187 6.081 6.081 0 0 0 6.328.031 5.916 5.916 0 0 0 2.721-5.19z" transform="translate(2.094 2.047)"/></g></symbol><symbol viewBox="0 0 55 55" id="url" xmlns="http://www.w3.org/2000/svg"><defs><style>.jcls-1{fill:#60ae46;fill-rule:evenodd}</style></defs><path id="jurl" class="jcls-1" d="M3.83 49.647l-.477-.477a11.128 11.128 0 0 1-.167-15.734l5.784-5.784a11.019 11.019 0 0 1 12.35-2.174l-4.3 4.3a5.542 5.542 0 0 0-4.158 1.614l-5.94 5.939a5.675 5.675 0 0 0 .085 8.024l.639.635a5.675 5.675 0 0 0 8.024.085l5.939-5.94a5.542 5.542 0 0 0 1.614-4.158l4.3-4.3a11.019 11.019 0 0 1-2.174 12.35l-5.784 5.784a11.128 11.128 0 0 1-15.735-.164zM36.3 20.68L20.524 36.451a2.924 2.924 0 0 1-4.134-4.134l15.771-15.771A2.924 2.924 0 0 1 36.3 20.68zm-4.616 6.842l4.3-4.3a5.542 5.542 0 0 0 4.158-1.614l5.939-5.939a5.675 5.675 0 0 0-.085-8.024l-.642-.635a5.675 5.675 0 0 0-8.025-.085l-5.94 5.939a5.543 5.543 0 0 0-1.614 4.158l-4.3 4.3A11.019 11.019 0 0 1 27.651 8.97l5.784-5.784a11.127 11.127 0 0 1 15.734.167l.478.477a11.128 11.128 0 0 1 .167 15.734l-5.784 5.784a11.019 11.019 0 0 1-12.351 2.174z" transform="translate(1 1)"/></symbol><symbol viewBox="0 0 14 14" id="youtube" xmlns="http://www.w3.org/2000/svg"><defs><style>.kcls-1{fill:#008dff;fill-rule:evenodd}</style><clipPath id="kclip-path"><path d="M1.938 3.156h1052v685h-1052z"/></clipPath></defs><g clip-path="url(#kclip-path)"><path id="kyoutube" class="kcls-1" d="M8.872.085a40.442 40.442 0 0 0-7.662 0 1.375 1.375 0 0 0-1.137 1.24 39.245 39.245 0 0 0 0 4.822A1.462 1.462 0 0 0 1.21 7.413a26.082 26.082 0 0 0 7.662 0 1.489 1.489 0 0 0 1.162-1.293 28.558 28.558 0 0 0 0-4.822A1.4 1.4 0 0 0 8.872.085zM4.053 2.214L6.747 3.7 4.053 5.285V2.214z" transform="translate(1.938 3.156)"/></g></symbol></svg>