<?xml version="1.0" encoding="utf-8"?><svg xmlns="http://www.w3.org/2000/svg" xmlns:xlink="http://www.w3.org/1999/xlink"><symbol viewBox="0 0 55 55" id="mail" xmlns="http://www.w3.org/2000/svg"><defs><style>.acls-1{fill:#60ae46;fill-rule:evenodd}</style></defs><path id="amail" class="acls-1" d="M49.972 3.5L25.006 19.842.04 3.5S-.71 0 4.433 0h41.146c5.143 0 4.393 3.5 4.393 3.5zM25.006 25.4L49.972 4.762v24.35c0 2.6-.429 3.9-3.536 3.9H3.576c-3.107 0-3.536-1.3-3.536-3.9V4.762z" transform="translate(2.5 11)"/></symbol><symbol viewBox="0 0 55 55" id="search" xmlns="http://www.w3.org/2000/svg"><defs><style>.bcls-1{fill:#60ae46;fill-rule:evenodd}</style></defs><path id="bsearch" class="bcls-1" d="M37.631 34.135L48.108 44.76a3.081 3.081 0 0 1 0 4.314 2.979 2.979 0 0 1-4.254 0L33.34 38.411a20.756 20.756 0 0 1-27.21-2.126 21.476 21.476 0 0 1 0-30.072 20.763 20.763 0 0 1 29.654 0 21.487 21.487 0 0 1 1.847 27.922zM9.836 9.972a16.108 16.108 0 0 0 0 22.554 15.572 15.572 0 0 0 22.24 0 16.107 16.107 0 0 0 0-22.554 15.572 15.572 0 0 0-22.24 0z" transform="translate(3 2.516)"/></symbol><symbol viewBox="0 0 30 30" id="share" xmlns="http://www.w3.org/2000/svg"><defs><style>.ccls-1{fill:#1a9197;fill-rule:evenodd}</style></defs><path id="cshare" class="ccls-1" d="M653.343 472.458a3.532 3.532 0 0 1-2.815-4.136c.014-.073.031-.144.05-.215l-8.751-3.98a4.127 4.127 0 0 1-3.434.876 4.064 4.064 0 1 1 4.087-6.4l6.462-2.5a3.426 3.426 0 0 1 .051-.965 3.483 3.483 0 1 1 .9 3.058l-6.618 2.558a4 4 0 0 1-.173 1.46l8.754 3.983a3.583 3.583 0 0 1 2.844-.654 3.523 3.523 0 1 1-1.357 6.915zm-13.735-13.622a2.222 2.222 0 1 0 1.776 2.609 2.241 2.241 0 0 0-1.776-2.609z" transform="translate(-631.329 -447.438)"/></symbol><symbol viewBox="0 0 22 22" id="tick" xmlns="http://www.w3.org/2000/svg"><path class="dtick" d="M17 6l-8 9-4-4" fill="transparent" stroke-width="2" stroke-dasharray="20" stroke-linecap="round" stroke-linejoin="round"/></symbol><symbol viewBox="0 0 55 55" id="url" xmlns="http://www.w3.org/2000/svg"><defs><style>.ecls-1{fill:#60ae46;fill-rule:evenodd}</style></defs><path id="eurl" class="ecls-1" d="M3.83 49.647l-.477-.477a11.128 11.128 0 0 1-.167-15.734l5.784-5.784a11.019 11.019 0 0 1 12.35-2.174l-4.3 4.3a5.542 5.542 0 0 0-4.158 1.614l-5.94 5.939a5.675 5.675 0 0 0 .085 8.024l.639.635a5.675 5.675 0 0 0 8.024.085l5.939-5.94a5.542 5.542 0 0 0 1.614-4.158l4.3-4.3a11.019 11.019 0 0 1-2.174 12.35l-5.784 5.784a11.128 11.128 0 0 1-15.735-.164zM36.3 20.68L20.524 36.451a2.924 2.924 0 0 1-4.134-4.134l15.771-15.771A2.924 2.924 0 0 1 36.3 20.68zm-4.616 6.842l4.3-4.3a5.542 5.542 0 0 0 4.158-1.614l5.939-5.939a5.675 5.675 0 0 0-.085-8.024l-.642-.635a5.675 5.675 0 0 0-8.025-.085l-5.94 5.939a5.543 5.543 0 0 0-1.614 4.158l-4.3 4.3A11.019 11.019 0 0 1 27.651 8.97l5.784-5.784a11.127 11.127 0 0 1 15.734.167l.478.477a11.128 11.128 0 0 1 .167 15.734l-5.784 5.784a11.019 11.019 0 0 1-12.351 2.174z" transform="translate(1 1)"/></symbol></svg>